/* XPM */
static char * explorer_xpm[] = {
"16 16 16 1",
" 	c #241B1A",
".	c #4B2B29",
"+	c #3E2F2A",
"@	c #5B443E",
"#	c #6D3F3A",
"$	c #73502B",
"%	c #8B5547",
"&	c #7E5F59",
"*	c #A6763A",
"=	c #947871",
"-	c #8E7F57",
";	c #D37359",
">	c #B29089",
",	c #D7AFA9",
"'	c #B9CCB1",
")	c #F9D8CF",
"''''@&&+''''''''",
"'''>,,))='''''''",
"''>,,))))@''''''",
"'@,&&&&&=,''''''",
"'+&,=&&>,&+'''''",
"+>&.,))=.=='''''",
" @.>))))=.@ ''''",
"@%&))))))&&+''''",
"+#%,>==>)%@+''''",
"'@%%%;;%%%+'''''",
"''%;;&&;;#'''$*+",
"''' >))= '''$$$$",
"'''. .. ''''*-$$",
"'''+@  & '+ .**'",
"''+.#..%& && '''",
"''++#.@@+ ++''''"};
