/* XPM */
static char * food_xpm[] = {
"16 16 16 1",
" 	c #462916",
".	c #38342F",
"+	c #6A272C",
"@	c #3F3B17",
"#	c #A91A48",
"$	c #5A544E",
"%	c #656421",
"&	c #8C5E32",
"*	c #A9632A",
"=	c #93813A",
"-	c #858778",
";	c #A38F32",
">	c #CA854F",
",	c #FAA45D",
"'	c #E0C551",
")	c #B9CCB1",
"))))))))))))))))",
"))).-)))))))))))",
"))))..))))))))))",
")$$)-  @))))))))",
")). )  %%%@@+)))",
")))+++'=;';@#+))",
"))) ++@''=%;%#+)",
"))=%&';';'%;';))",
")@========='==@)",
" &&&&&&&&&&&&&& ",
" >>>>>>>>>>>>>> ",
" ,,,,,,,,,,,,,, ",
")&,,,,,,,,,,,,&)",
"))&>>>>>>>>>>&))",
")) ********** ))",
")))          )))"};
