/* XPM */
static char * minotaur_xpm[] = {
"16 16 16 1",
" 	c #1B1411",
".	c #2B2321",
"+	c #3B2821",
"@	c #5E362B",
"#	c #423E3B",
"$	c #533C33",
"%	c #555356",
"&	c #734E3F",
"*	c #9F5947",
"=	c #8B6051",
"-	c #7A716A",
";	c #7A8390",
">	c #B17A65",
",	c #C58A76",
"'	c #98A5B2",
")	c #B9CCB1",
"))))-)))  .))).)",
"))))#--+==@#%-#)",
")))))%-$>>=#-#))",
")))))+&$$$@=$)))",
")))))>,=$&.,,$))",
"))))+,,>+$&,,&))",
"))))$,$=>,>&=>+)",
"))))&,+==,=$=,+)",
"))))&> ====$$,+)",
"))))$& @@@@@ >+)",
").# =$ ++@+. >+)",
")%'#+).=**@@)+))",
");'%)).,+ ==))))",
".;;%)).>$)>&))))",
"))))))+&++@+))))",
"))))))+@++@+))))"};
