/* XPM */
static char *pistol2_xpm[] = {
/* columns rows colors chars-per-pixel */
"128 128 37 1 ",
"  c None",
". c #980000",
"+ c #FC0000",
"@ c #EC0000",
"# c #FC9C9C",
"$ c #FC5454",
"% c #FC5C5C",
"& c #FCFC54",
"* c #A8A8A8",
"= c #7C7C7C",
"- c #8C8C8C",
"; c #D0D0D0",
"> c #B4B4B4",
", c #484848",
"' c #2C2C2C",
") c #989898",
"! c #646464",
"~ c #545454",
"{ c #707070",
"] c #000000",
"^ c #202020",
"/ c #A86840",
"( c #F0945C",
"_ c #B47044",
": c #FCB080",
"< c #543C1C",
"[ c #FCA470",
"} c #FCC4A4",
"| c #FCD8C4",
"1 c #C87C4C",
"2 c #744C28",
"3 c #80502C",
"4 c #E88C58",
"5 c #DC8854",
"6 c #FCB890",
"7 c #FC9C60",
"8 c #A0643C",
/* pixels */
"                                                                                                                                ",
"                                                                                                                                ",
"                                                                                                                                ",
"                                                                                                                                ",
"                                                                                                                                ",
"                                                                                                                                ",
"                                                                                                                                ",
"                                                                                                                                ",
"                                                                                                                                ",
"                                                                                                                                ",
"                                                                                                                                ",
"                                                                                                                                ",
"                                                                                                                                ",
"                                                                                                                                ",
"                                                                                                                                ",
"                                                                                                                                ",
"                                                                                                                                ",
"                                                                                                                                ",
"                                                                                                                                ",
"                                                                                                                                ",
"                                                                                                                                ",
"                                                                                                                                ",
"                                                                                                                                ",
"                                                                                                                                ",
"                                                                                                                                ",
"                                                                                                                                ",
"                                                                                                                                ",
"                                                                                                                                ",
"                                                                                                                                ",
"                                                                                                                                ",
"                                                                                                                                ",
"                                                                                                                                ",
"                                                                                                                                ",
"                                                                                                                                ",
"                                                                                                                                ",
"                                                                                                                                ",
"                                                                                                                                ",
"                                                                                                                                ",
"                                                                                                                                ",
"                                                                                                                                ",
"                                                                                                                                ",
"                                                                                                                                ",
"                                                                                                                                ",
"                                                                                                                                ",
"                                                                                                                                ",
"                                                                                                                                ",
"                                                                                                                                ",
"                                                                                                                                ",
"                                                                                                                                ",
"                                                                                                                                ",
"                                                                                                                                ",
"                                                                                                                                ",
"                                                                                                                                ",
"                                                                                                                                ",
"                                                                                                                                ",
"                                                                                                                                ",
"                                                                                                                                ",
"                                                                                                                                ",
"                                                                                                                                ",
"                                                                                                                                ",
"                                                                                                                                ",
"                                                                                                                                ",
"                                                                                                                                ",
"                                                                                                                                ",
"                                                                                                                                ",
"                                                                                                                                ",
"                                                                                                                                ",
"                                                                                                                                ",
"                                                                                                                                ",
"                                                                                                                                ",
"                                                                ..                                                              ",
"                                                                ..                                                              ",
"                                                              ..++..                                                            ",
"                                                              ..++..                                                            ",
"                                                        ++    @@##@@    ++                                                      ",
"                                                        ++    @@##@@    ++                                                      ",
"                                                          $$%%%%##%%%%$$                                                        ",
"                                                          $$%%%%##%%%%$$                                                        ",
"                                                          @@####&&##$$@@                                                        ",
"                                                          @@####&&##$$@@                                                        ",
"                                                        ..$$&&**==**&&$$@@                                                      ",
"                                                        ..$$&&**==**&&$$@@                                                      ",
"                                                      ..%%##**--;;--**##%%..                                                    ",
"                                                      ..%%##**--;;--**##%%..                                                    ",
"                                                        ..@@==>>;;>>==@@..                                                      ",
"                                                        ..@@==>>;;>>==@@..                                                      ",
"                                                            ,,>>;;>>,,                                                          ",
"                                                            ,,>>;;>>,,                                                          ",
"                                                          ====,,==,,====                                                        ",
"                                                          ====,,==,,====                                                        ",
"                                                        ''==))''''''!!==~~                                                      ",
"                                                        ''==))''''''!!==~~                                                      ",
"                                                        ''==**{{=={{!!==,,                                                      ",
"                                                        ''==**{{=={{!!==,,                                                      ",
"                                                        ''==**))))))!!==''                                                      ",
"                                                        ''==**))))))!!==''                                                      ",
"                                                        '',,))******,,,,]]                                                      ",
"                                                        '',,))******,,,,]]                                                      ",
"                                                        ''^^==,,,,,,]]^^]]//                                                    ",
"                                                        ''^^==,,,,,,]]^^]]//                                                    ",
"                                                      ((''^^!!'''''']]^^]]//__                                                  ",
"                                                      ((''^^!!'''''']]^^]]//__                                                  ",
"                                                    ((::::^^!!'''''']]^^<<//__                                                  ",
"                                                    ((::::^^!!'''''']]^^<<//__                                                  ",
"                                                    [[}}||11]]]]]]]]^^^^22______                                                ",
"                                                    [[}}||11]]]]]]]]^^^^22______                                                ",
"                                                    [[::||||11333333__44445511__                                                ",
"                                                    [[::||||11333333__44445511__                                                ",
"                                                  [[::::||||||||}}66::[[444455__                                                ",
"                                                  [[::::||||||||}}66::[[444455__                                                ",
"                                                  [[::44::||||||}}66::[[77445511                                                ",
"                                                  [[::44::||||||}}66::[[77445511                                                ",
"                                                  [[::[[44::::::::::[[7777445511                                                ",
"                                                  [[::[[44::::::::::[[7777445511                                                ",
"                                                  ((::::7777::::::[[[[7777445511                                                ",
"                                                  ((::::7777::::::[[[[7777445511                                                ",
"                                                  ))))))****11(((((((((())))))====                                              ",
"                                                  ))))))****11(((((((((())))))====                                              ",
"                                                ))****))--{{!!////88!!))****))))==!!                                            ",
"                                                ))****))--{{!!////88!!))****))))==!!                                            ",
"                                              ))****))))=={{!!~~,,!!==--****))))))==!!                                          ",
"                                              ))****))))=={{!!~~,,!!==--****))))))==!!                                          ",
"                                            ))****))))===={{!!~~~~!!==--))------))))!!~~                                        ",
"                                            ))****))))===={{!!~~~~!!==--))------))))!!~~                                        ",
"                                            ====))))=={{!!!!!!~~~~!!==!!==))****))))==!!,,                                      ",
"                                            ====))))=={{!!!!!!~~~~!!==!!==))****))))==!!,,                                      ",
"                                          >>))****))))===={{!!~~~~!!!!!!))))))****))==!!,,,,                                    ",
"                                          >>))****))))===={{!!~~~~!!!!!!))))))****))==!!,,,,                                    "
};