/* XPM */
static char * trap_collectible_xpm[] = {
"16 16 16 1",
" 	c #465359",
".	c #505D63",
"+	c #758081",
"@	c #BEBEB5",
"#	c #B9CCB1",
"$	c #D2D2C9",
"%	c #D4D3C3",
"&	c #D7D5C6",
"*	c #DFDDCE",
"=	c #E1DFD0",
"-	c #E4E2D3",
";	c #E7E5D6",
">	c #E9E7D8",
",	c #EEECDD",
"'	c #F0EFDF",
")	c #F3F1E1",
"################",
"#####+ ## +#####",
"####.;'%%';.####",
"####@,*--*,@####",
"##.@)-;));-)@.##",
"#+;,-)=;;*)-,;+#",
"# '*;=;--;=;*' #",
"##%-);-&&-;)-$##",
"##%-);-&%-;)-%##",
"# '*;*;--;*;*' #",
"#+;,-)*;;*)-,;+#",
"##.@)-;));-)@.##",
"####@,*--*,@####",
"####.;'%%';.####",
"#####+ ## +#####",
"################"};
