/* XPM */
static char * trap_active_xpm[] = {
"16 16 16 1",
" 	c #121014",
".	c #201F20",
"+	c #2D252A",
"@	c #282728",
"#	c #313231",
"$	c #383A38",
"%	c #4B3C1D",
"&	c #453D42",
"*	c #484549",
"=	c #5D5F5C",
"-	c #756030",
";	c #717372",
">	c #8E6F39",
",	c #9A9D99",
"'	c #D2AB4D",
")	c #B9CCB1",
"))))))))))))))))",
"))))))))))))))))",
")))))))%%)))))))",
")))))))'>)))))))",
")))))))>>)))))))",
")))))))>>)))))))",
")))))))--)))))))",
"$#@))))))))))@#$",
"$;.#)))%%)))#.;$",
")$;#)))%%)))#;$)",
"))#;##))))##;$))",
")))#;.@  @.,=)))",
"))))#;@&*.;$))))",
")))))#*&&&#)))))",
")))@).*&&&..@)))",
")))@@+@##@+@+.))"};
